<?xml version="1.0" encoding="iso-8859-1"?>
<!DOCTYPE svg PUBLIC "-//W3C//DTD SVG 1.1//EN" "http://www.w3.org/Graphics/SVG/1.1/DTD/svg11.dtd">
<svg xmlns="http://www.w3.org/2000/svg" xmlns:xlink="http://www.w3.org/1999/xlink" version="1.1" viewBox="0 0 315 315" enable-background="new 0 0 315 315" width="512px" height="512px">
  <g>
    <path d="M285.333,0H29.667c-3.866,0-7,3.134-7,7v301c0,3.866,3.134,7,7,7h255.666c3.866,0,7-3.134,7-7V7   C292.333,3.134,289.199,0,285.333,0z M278.333,14v52.127H36.667V14H278.333z M36.667,301V80.127h241.666V301H36.667z" fill="#337ab7"/>
    <path d="m157.506,105.402c-46.888,0-85.033,38.203-85.033,85.161s38.146,85.161 85.033,85.161c46.881,0 85.021-38.203 85.021-85.161s-38.14-85.161-85.021-85.161zm0,156.323c-39.168,0-71.033-31.923-71.033-71.161s31.865-71.161 71.033-71.161c39.161,0 71.021,31.923 71.021,71.161s-31.86,71.161-71.021,71.161z" fill="#337ab7"/>
    <path d="m157.505,141.236c-27.161,0-49.259,22.128-49.259,49.327s22.098,49.327 49.259,49.327c27.156,0 49.249-22.128 49.249-49.327s-22.093-49.327-49.249-49.327zm0,84.655c-19.441,0-35.259-15.848-35.259-35.327s15.817-35.327 35.259-35.327c19.436,0 35.249,15.848 35.249,35.327s-15.813,35.327-35.249,35.327z" fill="#337ab7"/>
    <circle cx="77.268" cy="40.063" r="8.29" fill="#337ab7"/>
    <circle cx="109.094" cy="40.063" r="8.29" fill="#337ab7"/>
    <circle cx="140.919" cy="40.063" r="8.29" fill="#337ab7"/>
  </g>
</svg>
