<?xml version="1.0" encoding="utf-8"?>
<!DOCTYPE svg PUBLIC "-//W3C//DTD SVG 1.1//EN" "http://www.w3.org/Graphics/SVG/1.1/DTD/svg11.dtd">
<svg xmlns="http://www.w3.org/2000/svg" xmlns:xlink="http://www.w3.org/1999/xlink" version="1.1" viewBox="0 0 512 512" enable-background="new 0 0 512 512" width="512px" height="512px">
  <g>
    <g>
      <g>
        <path d="M480.6,424.2H31.4c-11.3,0-20.4-9.1-20.4-20.4V31.4C11,20.1,20.1,11,31.4,11h449.2c11.3,0,20.4,9.1,20.4,20.4v372.3     C501,415,491.9,424.2,480.6,424.2z M51.8,383.3h408.3V51.8H51.8V383.3z" fill="#337ab7"/>
      </g>
      <g>
        <path d="m391.3,501h-277.5c-11.3,0-20.4-9.1-20.4-20.4 0-11.3 9.1-20.4 20.4-20.4h277.5c11.3,0 20.4,9.1 20.4,20.4 0,11.3-9.1,20.4-20.4,20.4z" fill="#337ab7"/>
      </g>
      <g>
        <g>
          <path d="M164.5,295.1V158.4h-51.1v-18.3h122.9v18.3H185v136.7H164.5z" fill="#337ab7"/>
        </g>
        <g>
          <path d="m316.9,295.1l-60.1-155h22.2l40.3,112.6c3.2,9 6,17.5 8.1,25.4 2.4-8.5 5.2-16.9 8.4-25.4l41.9-112.6h20.9l-60.7,155h-21z" fill="#337ab7"/>
        </g>
      </g>
    </g>
  </g>
</svg>
